HIERARCHY
ROOT Hips
{
  OFFSET 263.056 91.6644 -274.608
  CHANNELS 6 Xposition Yposition Zposition Zrotation Xrotation Yrotation
  JOINT LeftUpLeg
  {
    OFFSET 8.64259 1.95398 -2.38835
    CHANNELS 3 Zrotation Xrotation Yrotation
    JOINT LeftLeg
    {
      OFFSET 43.7702 0 0
      CHANNELS 3 Zrotation Xrotation Yrotation
      JOINT LeftFoot
      {
        OFFSET 40.6238 0 0
        CHANNELS 3 Zrotation Xrotation Yrotation
        JOINT LeftToeBase
        {
          OFFSET 12.7242 0 0
          CHANNELS 3 Zrotation Xrotation Yrotation
          End Site
          {
            OFFSET 0 0 0
          }
        }
      }
    }
  }
  JOINT RightUpLeg
  {
    OFFSET -8.2249 1.95398 -2.59336
    CHANNELS 3 Zrotation Xrotation Yrotation
    JOINT RightLeg
    {
      OFFSET 43.5653 0 0
      CHANNELS 3 Zrotation Xrotation Yrotation
      JOINT RightFoot
      {
        OFFSET 40.6238 0 0
        CHANNELS 3 Zrotation Xrotation Yrotation
        JOINT RightToeBase
        {
          OFFSET 12.7242 0 0
          CHANNELS 3 Zrotation Xrotation Yrotation
          End Site
          {
            OFFSET 0 0 0
          }
        }
      }
    }
  }
  JOINT Spine
  {
    OFFSET 0.165834 0.87714 6.61349
    CHANNELS 3 Zrotation Xrotation Yrotation
    JOINT Spine1
    {
      OFFSET 7.38963 1.71661e-005 0
      CHANNELS 3 Zrotation Xrotation Yrotation
      JOINT Spine2
      {
        OFFSET 11.9445 1.14441e-005 0
        CHANNELS 3 Zrotation Xrotation Yrotation
        JOINT Spine3
        {
          OFFSET 14.7254 4.19617e-005 0
          CHANNELS 3 Zrotation Xrotation Yrotation
          JOINT Spine4
          {
            OFFSET 10.9679 0 0
            CHANNELS 3 Zrotation Xrotation Yrotation
            JOINT RightShoulder
            {
              OFFSET 2.46616 -1.6653 3.69651
              CHANNELS 3 Zrotation Xrotation Yrotation
              JOINT RightArm
              {
                OFFSET 13.0012 0 0
                CHANNELS 3 Zrotation Xrotation Yrotation
                JOINT RightForeArm
                {
                  OFFSET 28.7848 1.52588e-005 0
                  CHANNELS 3 Zrotation Xrotation Yrotation
                  JOINT RightHand
                  {
                    OFFSET 26.5688 1.52588e-005 0
                    CHANNELS 3 Zrotation Xrotation Yrotation
                    End Site
                    {
                      OFFSET 0 0 0
                    }
                  }
                }
              }
            }
            JOINT LeftShoulder
            {
              OFFSET 2.38034 -1.29275 -3.7523
              CHANNELS 3 Zrotation Xrotation Yrotation
              JOINT LeftArm
              {
                OFFSET 16.3182 6.10352e-005 0
                CHANNELS 3 Zrotation Xrotation Yrotation
                JOINT LeftForeArm
                {
                  OFFSET 27.0901 0 0
                  CHANNELS 3 Zrotation Xrotation Yrotation
                  JOINT LeftHand
                  {
                    OFFSET 24.5451 1.52588e-005 0
                    CHANNELS 3 Zrotation Xrotation Yrotation
                    End Site
                    {
                      OFFSET 0 0 0
                    }
                  }
                }
              }
            }
            JOINT Neck
            {
              OFFSET 5.0226 -0.0266342 0
              CHANNELS 3 Zrotation Xrotation Yrotation
              JOINT Head
              {
                OFFSET 6.69364 2.86102e-005 0
                CHANNELS 3 Zrotation Xrotation Yrotation
                End Site
                {
                  OFFSET 0 0 0
                }
              }
            }
          }
        }
      }
    }
  }
}
MOTION
Frames:	7
Frame Time:	0.0416667
-126.256 10.3648 -124.558 3.4306 -4.90982 43.1543 -174.052 5.66145 90.326 -22.2866 30.5958 -0.846925 56.2738 0.412999 9.45073 84.269 60.35 2.61066 178.616 6.96211 89.3145 -29.5747 -10.7435 -3.79859 66.5658 -2.03493 -1.11718 66.5836 11.4763 31.8392 -0.178708 7.13361 -89.6773 12.6069 -0.201108 0.668349 0.935777 -0.171501 0.676531 -21.5984 -0.392674 0.577007 -1.58574 -0.392673 0.576989 85.1645 -45.5933 -109.637 -3.40921 16.3947 45.7108 -29.9345 25.6621 -136.81 -59.842 -12.5782 21.1811 -92.8309 -34.3208 69.6587 23.2065 -18.6599 58.4528 25.7028 -15.1659 -148.688 62.2448 19.5668 26.2634 34.2498 -7.92829 3.62434 23.7997 -10.4145 -6.10542 
-126.278 10.4276 -124.552 3.61323 -4.91219 43.0824 -174.074 5.46461 90.2875 -22.0275 30.9063 -0.860921 55.5607 -0.154513 9.65305 87.6616 60.2667 -1.80541 178.554 6.906 89.2462 -29.7232 -10.6464 -3.81589 66.8508 -2.1096 -1.15321 67.7273 11.6406 30.985 -0.126397 7.1551 -89.6407 12.5633 -0.0798042 0.72698 0.892197 -0.0477243 0.729786 -21.6415 -0.294614 0.669381 -1.6289 -0.294595 0.669381 85.7212 -46.0367 -108.604 -2.71378 15.8312 45.1745 -34.7018 29.972 -133.869 -51.6649 -8.89086 17.9396 -90.9057 -31.7297 72.2116 13.187 -18.1796 53.9459 29.4339 -20.9626 -146.338 62.6086 19.0174 25.2308 34.1077 -8.38185 2.65996 24.5888 -10.1847 -5.02387 
-126.324 10.4196 -124.565 3.74448 -4.89541 43.0917 -174.184 5.50215 90.2522 -22.2992 30.9643 -0.780401 55.7179 0.0682907 9.76895 90.9809 59.9297 -6.30758 178.555 6.88939 89.2936 -29.9294 -10.7185 -3.81989 66.9144 -2.1073 -1.1498 67.2291 11.1655 30.0609 -0.09828 7.17191 -89.6711 12.5297 -0.0385519 0.661485 0.858551 -0.00940866 0.662532 -21.6754 -0.235578 0.619322 -1.66274 -0.235578 0.619325 86.6545 -45.188 -107.397 -1.42517 15.6081 44.7636 -34.2633 29.8045 -133.878 -55.893 -9.25753 16.8113 -91.8763 -32.6492 70.763 17.4568 -18.841 55.7582 27.5659 -18.0568 -147.339 63.1485 18.7919 24.6052 34.3468 -8.3767 3.1614 24.4347 -10.4191 -5.15016 
-126.297 10.4153 -124.561 3.64925 -4.90262 43.1401 -174.174 5.54214 90.2793 -22.2864 30.8961 -0.772679 55.5409 -0.107776 9.7943 96.566 58.9348 -14.1085 178.586 6.93633 89.3214 -29.8119 -10.5085 -3.80341 66.7573 -2.0612 -1.12732 67.8749 11.7504 31.1716 -0.00777107 7.18161 -89.714 12.5101 0.120769 0.557331 0.838967 0.145194 0.551502 -21.6952 -0.0523228 0.567886 -1.68259 -0.0523127 0.567874 88.0906 -44.576 -105.271 -0.183129 14.9564 44.0301 -35.2174 31.0584 -133.257 -51.0223 -9.16021 18.6956 -92.6113 -33.1519 69.6144 19.3737 -19.1082 56.4735 26.8494 -16.8384 -147.832 63.1832 18.794 24.5863 34.5487 -8.51129 2.95591 24.4128 -10.2075 -4.17625 
-126.235 10.4946 -124.526 3.54208 -5.16463 42.9462 -174.23 5.23925 89.9571 -21.9698 30.2905 -0.779524 55.6205 0.118604 9.82869 99.7588 57.5617 -19.4283 178.625 7.03992 89.2388 -30.0975 -10.4071 -4.00972 66.4927 -1.89633 -1.029 68.4412 11.7984 30.67 0.097267 7.21136 -89.7611 12.4503 0.306946 0.441924 0.779339 0.32608 0.42796 -21.7553 0.159938 0.513736 -1.74266 0.159923 0.51371 89.7266 -43.3177 -102.947 2.03449 13.9117 42.9103 -36.1556 32.6021 -132.617 -49.9449 -9.26288 19.4842 -91.8448 -32.4504 70.7451 13.7331 -18.3526 52.839 29.1054 -20.4728 -146.266 61.78 18.9654 25.6081 34.4105 -8.46167 3.56039 24.5837 -10.3539 -3.92383 
-126.064 10.558 -124.565 3.18849 -5.67446 42.6454 -174.134 4.75182 89.5496 -21.4645 29.9687 -0.974711 56.3194 0.988288 10.0997 100.704 55.6085 -23.0248 178.44 7.2437 88.8608 -30.5577 -10.5464 -4.16024 65.8918 -1.5444 -0.819339 69.3443 12.1166 30.6374 0.187501 7.23271 -89.8206 12.4078 0.457897 0.305895 0.736879 0.470922 0.285449 -21.7984 0.34479 0.429377 -1.78574 0.344804 0.42938 90.5597 -41.228 -102.114 3.11932 14.0024 42.2827 -35.757 32.0776 -132.723 -50.2427 -9.39508 19.5861 -92.1374 -33.3059 70.5283 15.4508 -19.0574 52.9937 27.8893 -18.7502 -146.4 60.2088 17.982 24.9555 34.8506 -8.29177 4.28758 24.139 -10.4444 -3.7009 
-125.855 10.6417 -124.749 2.84748 -6.57768 42.5314 -174.169 4.11273 89.2193 -21.3915 29.8058 -0.986259 57.3366 2.26462 10.8343 100.891 53.5563 -25.9801 178.268 6.99135 88.6568 -30.8606 -10.9926 -4.16417 65.9472 -1.59174 -0.848457 69.887 10.5432 25.1984 0.304071 7.31096 -89.9283 12.2523 0.638392 0.0712491 0.581482 0.640902 0.0430887 -21.9548 0.587453 0.259835 -1.94216 0.587451 0.259842 92.073 -39.5492 -99.93 4.50165 13.5905 40.4491 -37.5655 33.2763 -131.814 -51.4413 -9.34037 19.0121 -92.0628 -35.2094 71.3408 16.4737 -21.9362 52.2888 26.7502 -17.1281 -147.077 57.6535 16.5664 24.0455 35.2706 -7.89041 4.76438 24.0753 -10.2144 -3.41356 
